<svg xmlns="http://www.w3.org/2000/svg" viewBox="0 0 512 512" width="512" height="512">
	<style>
		tspan { white-space:pre }
		.shp0 { fill: #222222 } 
		.shp1 { fill: #ffffff } 
		.shp2 { fill: #ff0000 } 
	</style>
	<path id="tab-icon" class="shp0" d="M484.78 131.05C472.63 118.61 458.09 112.39 441.16 112.39L255.63 112.39L255.63 103.34C255.63 86 249.56 71.1 237.41 58.66C225.26 46.22 210.72 40 193.79 40L105.45 40C88.51 40 73.97 46.22 61.83 58.66C49.68 71.1 43.6 86 43.6 103.34L43.6 374.8C43.6 392.15 49.68 407.04 61.83 419.48C73.97 431.92 88.51 438.14 105.45 438.14L441.16 438.14C458.09 438.14 472.63 431.92 484.78 419.48C496.93 407.04 503 392.15 503 374.8L503 175.73C503 158.39 496.93 143.49 484.78 131.05Z" />
	<g id="prevent-icon">
		<path id="bg_of_not_allowed-icon" class="shp1" d="M104.96 486.48C50.79 486.48 7 442.69 7 388.52C7 334.35 50.79 290.56 104.96 290.56C159.13 290.56 202.91 334.35 202.91 388.52C202.91 442.69 159.13 486.48 104.96 486.48Z" />
		<path id="not_allowed-icon" class="shp2" d="M131.43 327.52C139.71 331.04 146.83 335.79 152.79 341.76C158.74 347.74 163.5 354.84 167.04 363.07C170.59 371.3 172.37 379.95 172.37 389.04C172.37 402.14 168.74 414.3 161.48 425.51L69.31 332.92C80.24 325.8 92.28 322.24 105.42 322.24C114.47 322.24 123.15 324 131.43 327.52ZM105.42 455.84C93.34 455.84 82.16 452.85 71.88 446.88C61.6 440.9 53.48 432.8 47.52 422.56C41.57 412.33 38.59 401.16 38.59 389.04C38.59 375.53 42.3 363.25 49.72 352.2L142.01 444.91C130.84 452.2 118.64 455.84 105.42 455.84L105.42 455.84ZM38.71 322.3C30.3 330.69 23.61 340.72 18.63 352.38C13.66 364.05 11.17 376.27 11.17 389.04C11.17 401.81 13.66 414.03 18.63 425.7C23.61 437.36 30.3 447.39 38.71 455.78C47.11 464.17 57.13 470.87 68.76 475.86C80.39 480.85 92.61 483.35 105.42 483.35C118.23 483.35 130.47 480.85 142.14 475.86C153.81 470.87 163.84 464.17 172.25 455.78C180.65 447.39 187.34 437.36 192.32 425.7C197.3 414.03 199.79 401.81 199.79 389.04C199.79 376.27 197.3 364.05 192.32 352.38C187.34 340.72 180.65 330.69 172.25 322.3C163.84 313.91 153.81 307.22 142.14 302.22C130.47 297.23 118.23 294.73 105.42 294.73C92.61 294.73 80.39 297.23 68.76 302.22C57.13 307.22 47.11 313.91 38.71 322.3Z" />
	</g>
	<path id="mouse-icon" class="shp1" d="M211.37 96.11C210.42 96.03 209.54 96.23 208.74 96.73C207.69 97.3 207 98.18 206.68 99.37C206.49 100.08 206.48 100.76 206.63 101.42L226.43 197.71C226.63 198.71 227.13 199.53 227.91 200.17C228.69 200.8 229.59 201.14 230.63 201.18C231.66 201.22 232.58 200.93 233.39 200.32C234.19 199.71 234.72 198.91 234.98 197.94L245.22 159.74L283.51 170C284.48 170.26 285.44 170.2 286.37 169.81C287.31 169.42 288.02 168.77 288.5 167.85C288.71 167.44 288.84 167.12 288.9 166.89C289.37 165.13 288.93 163.66 287.58 162.49L213.88 97.25C213.15 96.58 212.32 96.2 211.37 96.11Z" />
	<path id="x-icon" class="shp1" d="M210.29 92.24C210.29 91.87 210.15 91.54 209.86 91.26L203.98 85.37L209.86 79.48C210.15 79.2 210.29 78.87 210.29 78.5C210.29 78.12 210.15 77.79 209.86 77.51L203.59 71.23C203.3 70.95 202.97 70.8 202.6 70.8C202.23 70.8 201.9 70.95 201.61 71.23L195.73 77.12L189.84 71.23C189.55 70.95 189.22 70.8 188.85 70.8C188.48 70.8 188.15 70.95 187.86 71.23L181.59 77.51C181.3 77.79 181.16 78.12 181.16 78.5C181.16 78.87 181.3 79.2 181.59 79.48L187.48 85.37L181.59 91.26C181.3 91.54 181.16 91.87 181.16 92.24C181.16 92.62 181.3 92.95 181.59 93.23L187.86 99.5C188.15 99.79 188.48 99.93 188.85 99.93C189.22 99.93 189.55 99.79 189.84 99.5L195.73 93.62L201.61 99.5C201.9 99.79 202.23 99.93 202.6 99.93C202.97 99.93 203.3 99.79 203.59 99.5L209.86 93.23C210.15 92.95 210.29 92.62 210.29 92.24ZM207.46 105.61C203.87 107.7 199.96 108.74 195.73 108.74C191.49 108.74 187.58 107.7 184 105.61C180.42 103.51 177.58 100.68 175.49 97.1C173.4 93.52 172.35 89.61 172.35 85.37C172.35 81.13 173.4 77.22 175.49 73.64C177.58 70.06 180.42 67.22 184 65.13C187.58 63.04 191.49 62 195.73 62C199.96 62 203.87 63.04 207.46 65.13C211.04 67.22 213.87 70.06 215.96 73.64C218.05 77.22 219.1 81.13 219.1 85.37C219.1 89.61 218.05 93.52 215.96 97.1C213.87 100.68 211.04 103.51 207.46 105.61ZM212.29 56.8C207.23 53.85 201.71 52.37 195.73 52.37C189.74 52.37 184.22 53.85 179.16 56.8C174.11 59.75 170.11 63.75 167.16 68.81C164.21 73.86 162.73 79.38 162.73 85.37C162.73 91.36 164.21 96.88 167.16 101.93C170.11 106.99 174.11 110.99 179.16 113.94C184.22 116.89 189.74 118.37 195.73 118.37C201.71 118.37 207.23 116.89 212.29 113.94C217.34 110.99 221.35 106.99 224.3 101.93C227.25 96.88 228.72 91.36 228.72 85.37C228.72 79.38 227.25 73.86 224.3 68.81C221.35 63.75 217.34 59.75 212.29 56.8Z" />
</svg>